# MagicaVoxel @ ephtracy

# material
mtllib chr_3a.mtl
usemtl palette

# normals
vn -1 0 0
vn 1 0 0
vn 0 0 1
vn 0 0 -1
vn 0 -1 0
vn 0 1 0

# texcoords
vt 0.841797 0.5
vt 0.869141 0.5
vt 0.927734 0.5

# verts
v -1 0 2
v -1 0 1
v -1 0 -1
v -1 0 -2
v -1 1 -1
v -1 1 -2
v -1 2 1
v -1 2 -2
v -1 3 2
v -1 3 1
v -1 3 -2
v -1 4 -1
v -1 4 -2
v -1 5 -0
v -1 5 -1
v -1 6 2
v -1 6 1
v -1 6 -0
v -1 6 -1
v -1 6 -2
v -1 7 2
v -1 7 1
v -1 7 -0
v -1 7 -1
v -1 8 2
v -1 8 1
v -1 9 -0
v -1 9 -1
v -1 9 -2
v -1 10 1
v -1 10 -0
v -1 10 -1
v -1 11 1
v -1 11 -1
v -1 14 2
v -1 14 -2
v 1 0 2
v 1 0 1
v 1 0 -1
v 1 0 -2
v 1 1 -0
v 1 1 -1
v 1 2 2
v 1 2 1
v 1 2 -1
v 1 2 -2
v 1 3 -0
v 1 3 -1
v 1 4 2
v 1 4 1
v 1 4 -1
v 1 4 -2
v 1 5 2
v 1 5 1
v 1 5 -1
v 1 5 -2
v 1 6 1
v 1 6 -1
v 1 7 2
v 1 7 -1
v 1 7 -2
v 1 8 -1
v 1 8 -2
v 1 9 2
v 1 9 1
v 1 10 2
v 1 10 1
v 1 10 -0
v 1 10 -2
v 1 11 2
v 1 11 1
v 1 11 -0
v 1 11 -1
v 1 11 -2
v 1 12 2
v 1 12 1
v 1 12 -0
v 1 12 -1
v 1 13 1
v 1 13 -0
v 1 14 2
v 1 14 1
v 1 14 -2
v -1 0 2
v -1 3 2
v -1 6 2
v -1 7 2
v -1 8 2
v -1 14 2
v 0 2 2
v 0 3 2
v 0 4 2
v 0 5 2
v 0 6 2
v 0 7 2
v 0 8 2
v 0 9 2
v 0 10 2
v 0 11 2
v 0 12 2
v 0 14 2
v 1 0 2
v 1 2 2
v 1 4 2
v 1 5 2
v 1 7 2
v 1 9 2
v 1 10 2
v 1 11 2
v 1 12 2
v 1 14 2
v -1 0 -2
v -1 1 -2
v -1 2 -2
v -1 3 -2
v -1 4 -2
v -1 6 -2
v -1 9 -2
v -1 14 -2
v 0 1 -2
v 0 2 -2
v 0 3 -2
v 0 5 -2
v 0 6 -2
v 0 7 -2
v 0 8 -2
v 0 9 -2
v 0 10 -2
v 0 11 -2
v 1 0 -2
v 1 2 -2
v 1 4 -2
v 1 5 -2
v 1 7 -2
v 1 8 -2
v 1 10 -2
v 1 11 -2
v 1 14 -2
v -1 0 2
v 1 0 2
v -1 0 1
v 1 0 1
v -1 0 -1
v 1 0 -1
v -1 0 -2
v 1 0 -2
v -1 14 2
v 0 14 2
v 1 14 2
v 0 14 1
v 1 14 1
v -1 14 -2
v 1 14 -2

# faces
f 5/3/1 3/3/1 2/3/1
f 5/2/1 4/2/1 3/2/1
f 6/2/1 4/2/1 5/2/1
f 7/1/1 2/1/1 1/1/1
f 7/3/1 5/3/1 2/3/1
f 7/3/1 6/3/1 5/3/1
f 8/3/1 6/3/1 7/3/1
f 9/1/1 7/1/1 1/1/1
f 10/2/1 8/2/1 7/2/1
f 10/1/1 7/1/1 9/1/1
f 11/2/1 8/2/1 10/2/1
f 12/3/1 11/3/1 10/3/1
f 13/3/1 11/3/1 12/3/1
f 14/3/1 12/3/1 10/3/1
f 15/1/1 13/1/1 12/1/1
f 15/3/1 12/3/1 14/3/1
f 16/2/1 10/2/1 9/2/1
f 17/3/1 14/3/1 10/3/1
f 17/2/1 10/2/1 16/2/1
f 18/1/1 15/1/1 14/1/1
f 18/3/1 14/3/1 17/3/1
f 19/1/1 13/1/1 15/1/1
f 19/1/1 15/1/1 18/1/1
f 20/1/1 13/1/1 19/1/1
f 21/3/1 18/3/1 17/3/1
f 21/3/1 17/3/1 16/3/1
f 21/3/1 19/3/1 18/3/1
f 22/3/1 19/3/1 21/3/1
f 23/3/1 19/3/1 22/3/1
f 24/2/1 20/2/1 19/2/1
f 24/3/1 19/3/1 23/3/1
f 25/1/1 22/1/1 21/1/1
f 26/3/1 23/3/1 22/3/1
f 26/1/1 22/1/1 25/1/1
f 27/1/1 24/1/1 23/1/1
f 27/3/1 23/3/1 26/3/1
f 27/3/1 26/3/1 25/3/1
f 28/2/1 20/2/1 24/2/1
f 28/1/1 24/1/1 27/1/1
f 29/2/1 20/2/1 28/2/1
f 30/3/1 27/3/1 25/3/1
f 31/2/1 28/2/1 27/2/1
f 31/3/1 27/3/1 30/3/1
f 32/3/1 29/3/1 28/3/1
f 32/2/1 28/2/1 31/2/1
f 33/3/1 30/3/1 25/3/1
f 33/1/1 31/1/1 30/1/1
f 33/1/1 32/1/1 31/1/1
f 34/3/1 29/3/1 32/3/1
f 34/1/1 32/1/1 33/1/1
f 35/3/1 33/3/1 25/3/1
f 35/3/1 34/3/1 33/3/1
f 36/3/1 29/3/1 34/3/1
f 36/3/1 34/3/1 35/3/1
f 38/3/2 39/3/2 41/3/2
f 39/2/2 40/2/2 42/2/2
f 41/3/2 39/3/2 42/3/2
f 37/1/2 38/1/2 43/1/2
f 38/3/2 41/3/2 44/3/2
f 43/1/2 38/1/2 44/1/2
f 42/2/2 40/2/2 45/2/2
f 41/2/2 42/2/2 45/2/2
f 45/2/2 40/2/2 46/2/2
f 44/3/2 41/3/2 47/3/2
f 41/2/2 45/2/2 47/2/2
f 45/3/2 46/3/2 48/3/2
f 47/2/2 45/2/2 48/2/2
f 43/2/2 44/2/2 49/2/2
f 44/3/2 47/3/2 50/3/2
f 49/2/2 44/2/2 50/2/2
f 47/3/2 48/3/2 50/3/2
f 48/3/2 46/3/2 51/3/2
f 50/3/2 48/3/2 51/3/2
f 51/3/2 46/3/2 52/3/2
f 49/3/2 50/3/2 53/3/2
f 50/3/2 51/3/2 53/3/2
f 53/3/2 51/3/2 54/3/2
f 51/1/2 52/1/2 55/1/2
f 54/3/2 51/3/2 55/3/2
f 55/1/2 52/1/2 56/1/2
f 53/1/2 54/1/2 57/1/2
f 54/3/2 55/3/2 57/3/2
f 55/2/2 56/2/2 58/2/2
f 57/3/2 55/3/2 58/3/2
f 53/1/2 57/1/2 59/1/2
f 57/1/2 58/1/2 59/1/2
f 58/2/2 56/2/2 60/2/2
f 59/1/2 58/1/2 60/1/2
f 60/2/2 56/2/2 61/2/2
f 59/3/2 60/3/2 62/3/2
f 60/1/2 61/1/2 62/1/2
f 62/1/2 61/1/2 63/1/2
f 59/3/2 62/3/2 64/3/2
f 62/3/2 63/3/2 64/3/2
f 64/3/2 63/3/2 65/3/2
f 64/2/2 65/2/2 66/2/2
f 65/3/2 63/3/2 67/3/2
f 66/2/2 65/2/2 67/2/2
f 67/3/2 63/3/2 68/3/2
f 68/3/2 63/3/2 69/3/2
f 66/3/2 67/3/2 70/3/2
f 67/3/2 68/3/2 70/3/2
f 70/3/2 68/3/2 71/3/2
f 68/1/2 69/1/2 72/1/2
f 71/3/2 68/3/2 72/3/2
f 72/1/2 69/1/2 73/1/2
f 73/1/2 69/1/2 74/1/2
f 70/2/2 71/2/2 75/2/2
f 71/1/2 72/1/2 76/1/2
f 75/2/2 71/2/2 76/2/2
f 72/1/2 73/1/2 76/1/2
f 76/1/2 73/1/2 77/1/2
f 73/3/2 74/3/2 78/3/2
f 77/1/2 73/1/2 78/1/2
f 76/1/2 77/1/2 79/1/2
f 75/1/2 76/1/2 79/1/2
f 77/3/2 78/3/2 80/3/2
f 79/1/2 77/1/2 80/1/2
f 75/1/2 79/1/2 81/1/2
f 79/3/2 80/3/2 82/3/2
f 81/1/2 79/1/2 82/1/2
f 78/3/2 74/3/2 83/3/2
f 82/3/2 80/3/2 83/3/2
f 80/3/2 78/3/2 83/3/2
f 90/1/3 85/1/3 84/1/3
f 91/2/3 86/2/3 85/2/3
f 91/1/3 85/1/3 90/1/3
f 92/2/3 86/2/3 91/2/3
f 93/2/3 86/2/3 92/2/3
f 94/3/3 87/3/3 86/3/3
f 94/2/3 86/2/3 93/2/3
f 95/1/3 88/1/3 87/1/3
f 95/3/3 87/3/3 94/3/3
f 96/3/3 89/3/3 88/3/3
f 96/1/3 88/1/3 95/1/3
f 97/3/3 89/3/3 96/3/3
f 98/3/3 89/3/3 97/3/3
f 99/3/3 89/3/3 98/3/3
f 100/3/3 89/3/3 99/3/3
f 101/3/3 89/3/3 100/3/3
f 102/1/3 90/1/3 84/1/3
f 103/2/3 91/2/3 90/2/3
f 103/1/3 90/1/3 102/1/3
f 103/2/3 92/2/3 91/2/3
f 104/3/3 93/3/3 92/3/3
f 104/2/3 92/2/3 103/2/3
f 105/1/3 95/1/3 94/1/3
f 105/3/3 93/3/3 104/3/3
f 105/1/3 94/1/3 93/1/3
f 106/3/3 96/3/3 95/3/3
f 106/1/3 95/1/3 105/1/3
f 106/3/3 97/3/3 96/3/3
f 107/2/3 98/2/3 97/2/3
f 107/3/3 97/3/3 106/3/3
f 108/3/3 99/3/3 98/3/3
f 108/2/3 98/2/3 107/2/3
f 109/2/3 100/2/3 99/2/3
f 109/3/3 99/3/3 108/3/3
f 110/1/3 101/1/3 100/1/3
f 110/2/3 100/2/3 109/2/3
f 111/1/3 101/1/3 110/1/3
f 112/2/4 113/2/4 120/2/4
f 113/3/4 114/3/4 120/3/4
f 114/2/4 115/2/4 121/2/4
f 120/3/4 114/3/4 121/3/4
f 115/3/4 116/3/4 122/3/4
f 121/2/4 115/2/4 122/2/4
f 116/1/4 117/1/4 123/1/4
f 117/2/4 118/2/4 124/2/4
f 123/1/4 117/1/4 124/1/4
f 124/2/4 118/2/4 125/2/4
f 125/2/4 118/2/4 126/2/4
f 118/3/4 119/3/4 127/3/4
f 126/2/4 118/2/4 127/2/4
f 127/3/4 119/3/4 128/3/4
f 128/3/4 119/3/4 129/3/4
f 112/2/4 120/2/4 130/2/4
f 120/2/4 121/2/4 130/2/4
f 121/3/4 122/3/4 131/3/4
f 130/2/4 121/2/4 131/2/4
f 116/1/4 123/1/4 132/1/4
f 131/3/4 122/3/4 132/3/4
f 122/3/4 116/3/4 132/3/4
f 123/2/4 124/2/4 133/2/4
f 132/1/4 123/1/4 133/1/4
f 124/2/4 125/2/4 133/2/4
f 125/1/4 126/1/4 134/1/4
f 133/2/4 125/2/4 134/2/4
f 127/3/4 128/3/4 135/3/4
f 134/1/4 126/1/4 135/1/4
f 126/3/4 127/3/4 135/3/4
f 128/1/4 129/1/4 136/1/4
f 135/3/4 128/3/4 136/3/4
f 129/3/4 119/3/4 137/3/4
f 136/1/4 129/1/4 137/1/4
f 137/3/4 119/3/4 138/3/4
f 141/1/5 140/1/5 139/1/5
f 142/1/5 140/1/5 141/1/5
f 143/3/5 142/3/5 141/3/5
f 144/3/5 142/3/5 143/3/5
f 145/2/5 144/2/5 143/2/5
f 146/2/5 144/2/5 145/2/5
f 147/3/6 148/3/6 150/3/6
f 148/1/6 149/1/6 150/1/6
f 150/1/6 149/1/6 151/1/6
f 147/3/6 150/3/6 152/3/6
f 150/3/6 151/3/6 152/3/6
f 152/3/6 151/3/6 153/3/6
